<mxfile host="app.diagrams.net" modified="2024-05-03T07:00:39.523Z" agent="Mozilla/5.0 (Macintosh; Intel Mac OS X 10_15_7) AppleWebKit/605.1.15 (KHTML, like Gecko) Version/17.4.1 Safari/605.1.15" etag="JcOyREKGa1K1HjH7_ad-" version="24.3.1" type="github">
  <diagram name="Сторінка-1" id="PxG06iyKeexJ1y8sfxdK">
    <mxGraphModel dx="1026" dy="691" grid="1" gridSize="10" guides="1" tooltips="1" connect="1" arrows="1" fold="1" page="1" pageScale="1" pageWidth="827" pageHeight="1169" math="0" shadow="0">
      <root>
        <mxCell id="0" />
        <mxCell id="1" parent="0" />
        <mxCell id="_yezeSAtM-JNvSMhmO6c-1" value="FeedViewController" style="rounded=0;whiteSpace=wrap;html=1;fillColor=none;strokeColor=#B266FF;strokeWidth=2;fontColor=#9933FF;" vertex="1" parent="1">
          <mxGeometry x="350" y="330" width="120" height="40" as="geometry" />
        </mxCell>
        <mxCell id="_yezeSAtM-JNvSMhmO6c-2" value="UIViewController" style="rounded=0;whiteSpace=wrap;html=1;fillColor=none;strokeColor=#00CC00;strokeWidth=2;fontColor=#00CC00;" vertex="1" parent="1">
          <mxGeometry x="350" y="410" width="120" height="40" as="geometry" />
        </mxCell>
        <mxCell id="_yezeSAtM-JNvSMhmO6c-3" value="" style="endArrow=block;html=1;rounded=0;entryX=0.5;entryY=0;entryDx=0;entryDy=0;exitX=0.5;exitY=1;exitDx=0;exitDy=0;strokeWidth=2;strokeColor=#B266FF;endFill=0;" edge="1" parent="1" source="_yezeSAtM-JNvSMhmO6c-1" target="_yezeSAtM-JNvSMhmO6c-2">
          <mxGeometry width="50" height="50" relative="1" as="geometry">
            <mxPoint x="390" y="380" as="sourcePoint" />
            <mxPoint x="440" y="330" as="targetPoint" />
          </mxGeometry>
        </mxCell>
        <mxCell id="_yezeSAtM-JNvSMhmO6c-4" value="&amp;lt;FeedLoader&amp;gt;" style="rounded=0;whiteSpace=wrap;html=1;fillColor=none;strokeColor=#B266FF;strokeWidth=2;fontColor=#9933FF;" vertex="1" parent="1">
          <mxGeometry x="350" y="250" width="120" height="40" as="geometry" />
        </mxCell>
        <mxCell id="_yezeSAtM-JNvSMhmO6c-5" value="" style="endArrow=classic;html=1;rounded=0;entryX=0.5;entryY=1;entryDx=0;entryDy=0;exitX=0.5;exitY=0;exitDx=0;exitDy=0;strokeWidth=2;strokeColor=#B266FF;" edge="1" parent="1" source="_yezeSAtM-JNvSMhmO6c-1" target="_yezeSAtM-JNvSMhmO6c-4">
          <mxGeometry width="50" height="50" relative="1" as="geometry">
            <mxPoint x="390" y="380" as="sourcePoint" />
            <mxPoint x="440" y="330" as="targetPoint" />
          </mxGeometry>
        </mxCell>
        <mxCell id="_yezeSAtM-JNvSMhmO6c-6" value="RemoteFeedLoader" style="rounded=0;whiteSpace=wrap;html=1;fillColor=none;strokeColor=#3399FF;strokeWidth=2;fontColor=#3399FF;" vertex="1" parent="1">
          <mxGeometry x="270" y="180" width="120" height="40" as="geometry" />
        </mxCell>
        <mxCell id="_yezeSAtM-JNvSMhmO6c-7" value="" style="endArrow=classic;html=1;rounded=0;exitX=0.433;exitY=1.05;exitDx=0;exitDy=0;exitPerimeter=0;entryX=0;entryY=0.5;entryDx=0;entryDy=0;strokeWidth=2;dashed=1;strokeColor=#3399FF;" edge="1" parent="1" source="_yezeSAtM-JNvSMhmO6c-6" target="_yezeSAtM-JNvSMhmO6c-4">
          <mxGeometry width="50" height="50" relative="1" as="geometry">
            <mxPoint x="390" y="380" as="sourcePoint" />
            <mxPoint x="440" y="330" as="targetPoint" />
            <Array as="points">
              <mxPoint x="322" y="270" />
            </Array>
          </mxGeometry>
        </mxCell>
        <mxCell id="_yezeSAtM-JNvSMhmO6c-8" value="LocalFeedLoader" style="rounded=0;whiteSpace=wrap;html=1;fillColor=none;strokeColor=#FF3333;strokeWidth=2;fontColor=#FF3333;" vertex="1" parent="1">
          <mxGeometry x="440" y="180" width="120" height="40" as="geometry" />
        </mxCell>
        <mxCell id="_yezeSAtM-JNvSMhmO6c-9" value="" style="endArrow=classic;html=1;rounded=0;exitX=0.5;exitY=1;exitDx=0;exitDy=0;strokeWidth=2;dashed=1;strokeColor=#FF3333;entryX=1;entryY=0.5;entryDx=0;entryDy=0;fontColor=#FF3333;" edge="1" parent="1" source="_yezeSAtM-JNvSMhmO6c-8" target="_yezeSAtM-JNvSMhmO6c-4">
          <mxGeometry width="50" height="50" relative="1" as="geometry">
            <mxPoint x="332" y="232" as="sourcePoint" />
            <mxPoint x="480" y="280" as="targetPoint" />
            <Array as="points">
              <mxPoint x="500" y="270" />
            </Array>
          </mxGeometry>
        </mxCell>
        <mxCell id="_yezeSAtM-JNvSMhmO6c-10" value="RemoteWithLocalFallbackFeedLoader" style="rounded=0;whiteSpace=wrap;html=1;fillColor=none;strokeColor=#FF8000;strokeWidth=2;fontColor=#FF8000;" vertex="1" parent="1">
          <mxGeometry x="299" y="100" width="230" height="40" as="geometry" />
        </mxCell>
        <mxCell id="_yezeSAtM-JNvSMhmO6c-11" value="" style="endArrow=classic;html=1;rounded=0;entryX=0.5;entryY=0;entryDx=0;entryDy=0;strokeWidth=2;strokeColor=#FF8000;" edge="1" parent="1" target="_yezeSAtM-JNvSMhmO6c-6">
          <mxGeometry width="50" height="50" relative="1" as="geometry">
            <mxPoint x="330" y="140" as="sourcePoint" />
            <mxPoint x="440" y="330" as="targetPoint" />
          </mxGeometry>
        </mxCell>
        <mxCell id="_yezeSAtM-JNvSMhmO6c-12" value="" style="endArrow=classic;html=1;rounded=0;entryX=0.5;entryY=0;entryDx=0;entryDy=0;strokeWidth=2;strokeColor=#FF8000;exitX=0.874;exitY=1;exitDx=0;exitDy=0;exitPerimeter=0;" edge="1" parent="1" source="_yezeSAtM-JNvSMhmO6c-10" target="_yezeSAtM-JNvSMhmO6c-8">
          <mxGeometry width="50" height="50" relative="1" as="geometry">
            <mxPoint x="340" y="150" as="sourcePoint" />
            <mxPoint x="340" y="190" as="targetPoint" />
          </mxGeometry>
        </mxCell>
        <mxCell id="_yezeSAtM-JNvSMhmO6c-13" value="" style="endArrow=block;html=1;rounded=0;entryX=0.5;entryY=0;entryDx=0;entryDy=0;strokeWidth=2;strokeColor=#FF8000;endFill=0;dashed=1;" edge="1" parent="1" target="_yezeSAtM-JNvSMhmO6c-4">
          <mxGeometry width="50" height="50" relative="1" as="geometry">
            <mxPoint x="410" y="140" as="sourcePoint" />
            <mxPoint x="420" y="420" as="targetPoint" />
          </mxGeometry>
        </mxCell>
      </root>
    </mxGraphModel>
  </diagram>
</mxfile>
